<svg id="Outline" height="512" viewBox="0 0 512 512" width="512" xmlns="http://www.w3.org/2000/svg"><path fill="#fff" d="m56 432v-336h400v208h16v-256a32.036 32.036 0 0 0 -32-32h-368a32.036 32.036 0 0 0 -32 32v384a32.036 32.036 0 0 0 32 32h264v-16h-264a16.019 16.019 0 0 1 -16-16zm0-384a16.019 16.019 0 0 1 16-16h368a16.019 16.019 0 0 1 16 16v32h-400z"/><path fill="#fff" d="m72 48h16v16h-16z"/><path fill="#fff" d="m104 48h16v16h-16z"/><path fill="#fff" d="m136 48h16v16h-16z"/><path fill="#fff" d="m80 360h136v16h-136z"/><path fill="#fff" d="m80 392h136v16h-136z"/><path fill="#fff" d="m80 328h136v16h-136z"/><path fill="#fff" d="m128 296h88v16h-88z"/><path fill="#fff" d="m96 296h16v16h-16z"/><path fill="#fff" d="m335.761 185.94 8-32a8 8 0 0 0 -4.61-9.294l-56-24a8 8 0 0 0 -8.808 1.7l-18.343 18.341-18.343-18.344a8 8 0 0 0 -8.808-1.7l-56 24a8 8 0 0 0 -4.61 9.294l8 32a8 8 0 0 0 9.7 5.821l22.061-5.512v69.754a8 8 0 0 0 8 8h80a8 8 0 0 0 8-8v-69.754l22.06 5.515a8 8 0 0 0 9.701-5.821zm-37.821-17.7a8 8 0 0 0 -9.94 7.76v72h-64v-72a8 8 0 0 0 -9.94-7.761l-24.239 6.06-4.408-17.63 44.76-19.183 20.17 20.171a8 8 0 0 0 11.314 0l20.17-20.171 44.76 19.183-4.408 17.63z"/><path fill="#fff" d="m106.343 194.343-24 24a8 8 0 0 0 0 11.314l24 24 11.314-11.314-18.344-18.343 18.344-18.343z"/><path fill="#fff" d="m365.657 253.657 24-24a8 8 0 0 0 0-11.314l-24-24-11.314 11.314 18.344 18.343-18.344 18.343z"/><path fill="#fff" d="m405.657 253.657 24-24a8 8 0 0 0 0-11.314l-24-24-11.314 11.314 18.344 18.343-18.344 18.343z"/><path fill="#fff" d="m146.343 194.343-24 24a8 8 0 0 0 0 11.314l24 24 11.314-11.314-18.344-18.343 18.344-18.343z"/><path fill="#fff" d="m482.06 401.255a47.6 47.6 0 0 0 -33.66-81.255h-32.4v-32a24 24 0 0 0 -48 0v60.826a24.972 24.972 0 0 0 -33.656 36.833l33.656 33.654v12.687h-8a8 8 0 0 0 -8 8v72h16v-64h96v64h16v-72a8 8 0 0 0 -8-8h-8v-12.687zm-31.717 9.088a8 8 0 0 0 -2.343 5.657v16h-64v-16a8 8 0 0 0 -2.344-5.657l-36-36a8.971 8.971 0 1 1 12.687-12.688l12 12a8 8 0 0 0 13.657-5.655v-80a8 8 0 0 1 16 0v40a8 8 0 0 0 8 8h40.4a31.6 31.6 0 0 1 22.343 53.94z"/><path fill="#fff" d="m432 464h16v16h-16z"/><path fill="#fff" d="m424 112h16v16h-16z"/><path fill="#fff" d="m392 112h16v16h-16z"/><path fill="#fff" d="m80 480h184v16h-184z"/><path fill="#fff" d="m280 480h16v16h-16z"/><path fill="#fff" d="m240 296a8 8 0 0 0 -8 8v96a8 8 0 0 0 8 8h64a8 8 0 0 0 8-8v-96a8 8 0 0 0 -8-8zm56 96h-48v-80h48z"/></svg>