<?xml version="1.0" ?><svg viewBox="0 0 40 40" xmlns="http://www.w3.org/2000/svg"><g id="Wordpress"><g data-name="W Mark" id="W_Mark"><path d="M20,6.84a13,13,0,0,1,7.36,2.25,12.85,12.85,0,0,1,3.55,3.55,13.11,13.11,0,0,1,0,14.72,12.85,12.85,0,0,1-3.55,3.55,13.11,13.11,0,0,1-14.72,0,12.85,12.85,0,0,1-3.55-3.55,13.11,13.11,0,0,1,0-14.72,12.85,12.85,0,0,1,3.55-3.55A13,13,0,0,1,20,6.84M20,6A14,14,0,1,0,34,20,14,14,0,0,0,20,6Z" fill="#fff"/><path d="M8.33,20a11.67,11.67,0,0,0,6.58,10.5L9.34,15.25A11.75,11.75,0,0,0,8.33,20Zm19.55-.59a6.11,6.11,0,0,0-1-3.22,5.44,5.44,0,0,1-1.14-2.73,2,2,0,0,1,2-2.07h.15a11.66,11.66,0,0,0-17.63,2.19l.75,0c1.22,0,3.11-.15,3.11-.15a.48.48,0,0,1,.08,1s-.64.07-1.34.11L17.1,27.17l2.55-7.66-1.81-5c-.63,0-1.23-.11-1.23-.11a.48.48,0,0,1,.08-1s1.92.15,3.07.15,3.11-.15,3.11-.15a.48.48,0,0,1,.07,1s-.63.07-1.33.11l4.21,12.54L27,23.26A13.66,13.66,0,0,0,27.88,19.41ZM20.2,21,16.7,31.19a11.6,11.6,0,0,0,3.3.48A11.78,11.78,0,0,0,23.87,31a.89.89,0,0,1-.08-.17Zm10-6.62a9,9,0,0,1,.08,1.2,11.1,11.1,0,0,1-.89,4.18l-3.56,10.3A11.67,11.67,0,0,0,30.24,14.4Z" fill="#fff"/></g></g></svg>