<?xml version="1.0" ?><svg id="Layer_1" style="enable-background:new 0 0 256 256;" version="1.1" viewBox="0 0 256 256" xml:space="preserve" xmlns="http://www.w3.org/2000/svg" xmlns:xlink="http://www.w3.org/1999/xlink"><g><path d="M248.7,219.8C248.7,219.8,248.6,219.8,248.7,219.8l-0.1,0c-0.1-0.2-0.2-0.4-0.4-0.5l-36.5-44.6   c27.1-44.2,20.5-102.2-16.3-139.2C151.3-8.6,79.5-8.8,35.2,35.3c-43.9,44.2-43.8,116,0.4,160c36.9,36.8,94.9,43.5,139.2,16.3   l44.4,36.3c0.2,0.2,0.6,0.6,0.8,0.7c3.9,3.3,8.6,5,13.3,5c4.8,0,9.5-1.7,13.5-5l2-1.9c0.3-0.3,0.6-0.7,0.8-1.1   C255.3,238,255.1,227.3,248.7,219.8z M241,239.8c-0.1,0.1-0.2,0.3-0.3,0.4l-0.8,0.7c-3.9,3.3-9.5,3.3-13.5-0.1l-0.3-0.3   c-0.1-0.1-0.2-0.2-0.4-0.3l-47.4-38.8c-0.9-0.8-2.1-1.2-3.2-1.2c-1,0-2,0.3-2.9,0.9l-0.4,0.3c-40.5,26.5-94.8,20.9-129.1-13.3   C2.6,148.1,2.5,82.8,42.5,42.4C82.7,2.4,148,2.6,188.1,42.7c34.2,34.3,39.8,88.6,13.3,129.1l-0.3,0.5c-1.2,1.9-1.1,4.3,0.3,6   l38.8,47.4l0,0c0.2,0.2,0.4,0.4,0.5,0.6l0.1,0.1C244.2,230.3,244.3,235.9,241,239.8z"/><path d="M115.3,179.3c-35.2,0-63.8-28.6-63.8-63.8c0-31.6,22.7-58,53.4-62.9V42.3c-36.5,5.1-63.6,36-63.6,73.2   c0,40.8,33.2,74,74,74c37.2,0,68.2-27.1,73.2-63.6h-10.3C173.3,156.6,146.9,179.3,115.3,179.3z"/><path d="M122.8,41.9l-5.6-0.6v72.3h72.3l-0.6-5.6C185.4,73.2,157.6,45.4,122.8,41.9z M127.4,103.4V52.9   c25.5,4.9,45.6,25.1,50.5,50.5H127.4z"/></g></svg>